HIERARCHY
ROOT joint_Root
{
	OFFSET 0.0 0.0 0.0
	CHANNELS 6 Xposition Yposition Zposition Zrotation Xrotation Yrotation 
	JOINT Hips
	{
		OFFSET -0.726466 93.3139 -2.00062
		CHANNELS 6 Xposition Yposition Zposition Zrotation Xrotation Yrotation 
		JOINT Spine
		{
			OFFSET 15.7357 0.0 0.0
			CHANNELS 6 Xposition Yposition Zposition Zrotation Xrotation Yrotation 
			JOINT Chest
			{
				OFFSET 8.98455 -0.406207 0.0
				CHANNELS 6 Xposition Yposition Zposition Zrotation Xrotation Yrotation 
				JOINT Neck
				{
					OFFSET 16.3773 0.0 0.0
					CHANNELS 6 Xposition Yposition Zposition Zrotation Xrotation Yrotation 
					JOINT Head
					{
						OFFSET 6.45672 0.0 0.0
						CHANNELS 6 Xposition Yposition Zposition Zrotation Xrotation Yrotation 
						End Site
						{
							OFFSET 0.0 0.0 0.0
						}
					}
				}
				JOINT Shoulder_L
				{
					OFFSET 12.9942 -0.242716 4.98039
					CHANNELS 6 Xposition Yposition Zposition Zrotation Xrotation Yrotation 
					JOINT UpperArm_L
					{
						OFFSET 5.34809 0.0 0.0
						CHANNELS 6 Xposition Yposition Zposition Zrotation Xrotation Yrotation 
						JOINT LowerArm_L
						{
							OFFSET 24.3286 1.87007e-05 0.0
							CHANNELS 6 Xposition Yposition Zposition Zrotation Xrotation Yrotation 
							JOINT Hand_L
							{
								OFFSET 22.2916 0.0 0.0
								CHANNELS 6 Xposition Yposition Zposition Zrotation Xrotation Yrotation 
								End Site
								{
									OFFSET 0.0 0.0 0.0
								}
							}
						}
					}
				}
				JOINT Shoulder_R
				{
					OFFSET 12.9945 -0.242716 -4.98039
					CHANNELS 6 Xposition Yposition Zposition Zrotation Xrotation Yrotation 
					JOINT UpperArm_R
					{
						OFFSET -5.34813 0.0 0.0
						CHANNELS 6 Xposition Yposition Zposition Zrotation Xrotation Yrotation 
						JOINT LowerArm_R
						{
							OFFSET -24.3289 0.000322201 0.0
							CHANNELS 6 Xposition Yposition Zposition Zrotation Xrotation Yrotation 
							JOINT Hand_R
							{
								OFFSET -22.2915 -0.000108084 0.0
								CHANNELS 6 Xposition Yposition Zposition Zrotation Xrotation Yrotation 
								End Site
								{
									OFFSET 0.0 0.0 0.0
								}
							}
						}
					}
				}
			}
		}
		JOINT UpperLeg_L
		{
			OFFSET -2.19248 -6.46944 0.0
			CHANNELS 6 Xposition Yposition Zposition Zrotation Xrotation Yrotation 
			JOINT LowerLeg_L
			{
				OFFSET 39.0811 0.0 -1.23785e-05
				CHANNELS 6 Xposition Yposition Zposition Zrotation Xrotation Yrotation 
				JOINT Foot_L
				{
					OFFSET 40.9854 0.0 -1.26872e-05
					CHANNELS 6 Xposition Yposition Zposition Zrotation Xrotation Yrotation 
					JOINT Toes_L
					{
						OFFSET 11.7543 0.0 0.0
						CHANNELS 6 Xposition Yposition Zposition Zrotation Xrotation Yrotation 
						End Site
						{
							OFFSET 0.0 0.0 0.0
						}
					}
				}
			}
		}
		JOINT UpperLeg_R
		{
			OFFSET -2.19251 6.46944 0.0
			CHANNELS 6 Xposition Yposition Zposition Zrotation Xrotation Yrotation 
			JOINT LowerLeg_R
			{
				OFFSET -39.0811 -0.00228153 -0.0401928
				CHANNELS 6 Xposition Yposition Zposition Zrotation Xrotation Yrotation 
				JOINT Foot_R
				{
					OFFSET -40.9854 0.0 0.0
					CHANNELS 6 Xposition Yposition Zposition Zrotation Xrotation Yrotation 
					JOINT Toes_R
					{
						OFFSET -11.7543 0.0 0.0
						CHANNELS 6 Xposition Yposition Zposition Zrotation Xrotation Yrotation 
						End Site
						{
							OFFSET 0.0 0.0 0.0
						}
					}
				}
			}
		}
	}
}
MOTION
Frames:	9
Frame Time:	0.0333333
0.000000 0.000000 0.000000 0.000000 0.000000 -0.000000 -0.537336 91.726200 0.346700 88.420100 -1.324230 7.418980 15.735700 0.000005 -0.000001 84.468900 83.300600 -84.067000 8.984550 -0.406207 -0.000000 5.576120 -1.296040 0.865987 16.377300 -0.000001 -0.000001 4.325860 -1.790470 0.814922 6.456720 -0.000001 -0.000000 2.191840 -0.362956 -1.911600 12.994200 -0.242716 4.980390 -90.198700 0.635504 -72.637700 5.348090 -0.000007 -0.000001 -54.313700 51.929700 -19.144900 24.328600 0.000019 0.000005 -0.797074 -0.905895 -41.359400 22.291600 -0.000001 0.000005 6.550870 5.674360 -18.138100 12.994500 -0.242716 -4.980390 88.048800 6.133830 -72.315500 -5.348130 -0.000001 -0.000004 -61.952800 37.937600 -17.788000 -24.328900 0.000322 -0.000009 -4.225940 -8.048540 -27.816700 -22.291500 -0.000108 -0.000004 6.222540 5.592010 -10.877600 -2.192480 -6.469440 -0.000000 -168.782000 -19.182200 -0.666386 39.081100 -0.000007 -0.000012 -0.198246 0.427005 24.904300 40.985400 -0.000006 -0.000013 -5.916740 -0.607033 -64.336000 11.754300 -0.000000 0.000003 -0.000140 -0.001374 -16.629900 -2.192510 6.469440 -0.000001 171.816000 21.391300 -178.542000 -39.081100 -0.002282 -0.040193 -0.008017 0.026789 22.931600 -40.985400 0.000008 0.000006 -2.104900 3.463000 -64.465500 -11.754300 -0.000006 -0.000006 -0.002078 -0.029693 -17.780500
0.000000 0.000000 0.000000 0.000000 0.000000 -0.000000 -0.560893 91.728700 0.330860 88.363300 -1.331330 7.410650 15.735700 0.000005 -0.000001 84.439300 83.295000 -84.063000 8.984550 -0.406207 -0.000000 5.586370 -1.303470 0.815389 16.377300 -0.000001 -0.000001 4.279270 -1.770780 0.809293 6.456720 -0.000001 -0.000000 1.985040 -0.374511 -1.946520 12.994200 -0.242716 4.980390 -90.122100 0.384814 -72.395300 5.348090 -0.000007 -0.000001 -50.417900 54.411000 -20.379200 24.328600 0.000019 0.000005 0.161976 0.155821 -45.846100 22.291600 -0.000001 0.000005 6.315890 5.676860 -18.672300 12.994500 -0.242716 -4.980390 88.088800 5.948110 -72.150900 -5.348130 -0.000001 -0.000004 -61.776000 36.414000 -18.013300 -24.328900 0.000322 -0.000009 -4.109730 -7.888440 -27.627200 -22.291500 -0.000108 -0.000004 7.554270 5.586720 -10.581900 -2.192480 -6.469440 -0.000000 -168.702000 -19.188800 -0.674492 39.081100 -0.000007 -0.000012 -0.200333 0.431402 24.909300 40.985400 -0.000006 -0.000013 -5.937240 -0.601542 -64.331000 11.754300 -0.000000 0.000003 -0.000144 -0.001400 -16.630800 -2.192510 6.469440 -0.000001 171.910000 21.381100 -178.549000 -39.081100 -0.002282 -0.040193 -0.005331 0.020460 22.910800 -40.985400 0.000008 0.000006 -2.015190 3.434750 -64.463700 -11.754300 -0.000006 -0.000006 -0.001993 -0.028634 -17.737400
0.000000 0.000000 0.000000 0.000000 0.000000 -0.000000 -0.577852 91.727100 0.332162 88.350000 -1.433300 7.391120 15.735700 0.000005 -0.000001 84.654900 83.293700 -84.337000 8.984550 -0.406207 -0.000000 5.592780 -1.252470 0.696255 16.377300 -0.000001 -0.000001 4.167440 -1.817220 0.795623 6.456720 -0.000001 -0.000000 1.877750 -0.538196 -1.931980 12.994200 -0.242716 4.980390 -90.001800 0.005597 -72.136500 5.348090 -0.000007 -0.000001 -46.303200 56.554800 -21.435100 24.328600 0.000019 0.000005 1.940000 1.563610 -51.126700 22.291600 -0.000001 0.000005 6.463680 5.679650 -19.458800 12.994500 -0.242716 -4.980390 88.117900 5.769220 -71.897800 -5.348130 -0.000001 -0.000004 -61.145900 34.484200 -18.494500 -24.328900 0.000322 -0.000009 -3.962190 -7.607970 -27.610500 -22.291500 -0.000108 -0.000004 8.600400 5.579690 -10.196200 -2.192480 -6.469440 -0.000000 -168.677000 -19.247100 -0.684525 39.081100 -0.000007 -0.000012 -0.198637 0.427486 24.922800 40.985400 -0.000006 -0.000013 -5.955200 -0.642288 -64.338000 11.754300 -0.000000 0.000003 -0.000140 -0.001370 -16.629700 -2.192510 6.469440 -0.000001 171.927000 21.374600 -178.569000 -39.081100 -0.002282 -0.040193 -0.008837 0.028781 22.891600 -40.985400 0.000008 0.000006 -2.097920 3.546640 -64.440400 -11.754300 -0.000006 -0.000006 -0.002176 -0.030896 -17.829400
0.000000 0.000000 0.000000 0.000000 0.000000 -0.000000 -0.585471 91.748400 0.319714 88.344500 -1.552910 7.346160 15.735700 0.000005 -0.000001 84.820600 83.309800 -84.565300 8.984550 -0.406207 -0.000000 5.563360 -1.209940 0.568816 16.377300 -0.000001 -0.000001 4.096800 -1.907340 0.723583 6.456720 -0.000001 -0.000000 1.673270 -0.796637 -1.908120 12.994200 -0.242716 4.980390 -89.838400 -0.492781 -71.846100 5.348090 -0.000007 -0.000001 -41.925300 58.647000 -22.413400 24.328600 0.000019 0.000005 3.335780 2.187580 -56.767800 22.291600 -0.000001 0.000005 6.752710 5.681650 -20.427500 12.994500 -0.242716 -4.980390 88.126300 5.646610 -71.608800 -5.348130 -0.000001 -0.000004 -59.908800 31.953100 -19.274100 -24.328900 0.000322 -0.000009 -3.829560 -7.335270 -27.660700 -22.291500 -0.000108 -0.000004 8.751930 5.572540 -9.818600 -2.192480 -6.469440 -0.000000 -168.679000 -19.255600 -0.638482 39.081100 -0.000007 -0.000012 -0.198938 0.431014 24.776400 40.985400 -0.000006 -0.000013 -5.989290 -0.767891 -64.277700 11.754300 -0.000000 0.000003 -0.000139 -0.001360 -16.629400 -2.192510 6.469440 -0.000001 172.000000 21.324200 -178.621000 -39.081100 -0.002282 -0.040193 -0.002384 0.013548 22.818300 -40.985400 0.000008 0.000006 -1.883920 3.550270 -64.402200 -11.754300 -0.000006 -0.000006 -0.002042 -0.029242 -17.762200
0.000000 0.000000 0.000000 0.000000 0.000000 -0.000000 -0.585528 91.744200 0.321403 88.306300 -1.654260 7.284840 15.735700 0.000005 -0.000001 84.731200 83.315700 -84.534300 8.984550 -0.406207 -0.000000 5.549310 -1.228520 0.452933 16.377300 -0.000001 -0.000001 4.059560 -1.983090 0.688768 6.456720 -0.000001 -0.000000 1.302210 -0.944860 -1.947520 12.994200 -0.242716 4.980390 -89.685500 -0.945723 -71.602900 5.348090 -0.000007 -0.000001 -37.878100 60.262200 -22.639100 24.328600 0.000019 0.000005 4.943220 2.533350 -62.921800 22.291600 -0.000001 0.000005 7.200520 5.682060 -21.499200 12.994500 -0.242716 -4.980390 88.099700 5.594090 -71.203100 -5.348130 -0.000001 -0.000004 -57.544000 29.440700 -20.922900 -24.328900 0.000322 -0.000009 -3.554060 -6.846560 -27.512500 -22.291500 -0.000108 -0.000004 8.228380 5.560400 -9.203730 -2.192480 -6.469440 -0.000000 -168.657000 -19.283800 -0.706226 39.081100 -0.000007 -0.000012 -0.198346 0.428676 24.830000 40.985400 -0.000006 -0.000013 -6.009170 -0.839771 -64.318600 11.754300 -0.000000 0.000003 -0.000133 -0.001314 -16.627600 -2.192510 6.469440 -0.000001 172.047000 21.333400 -178.691000 -39.081100 -0.002282 -0.040193 -0.005397 0.020725 22.803300 -40.985400 0.000008 0.000006 -1.926290 3.681950 -64.377700 -11.754300 -0.000006 -0.000006 -0.002116 -0.030161 -17.799500
0.000000 0.000000 0.000000 0.000000 0.000000 -0.000000 -0.577765 91.756900 0.311066 88.281600 -1.733670 7.266550 15.735700 0.000005 -0.000001 84.533300 83.329500 -84.414000 8.984550 -0.406207 -0.000000 5.516660 -1.270330 0.299585 16.377300 -0.000001 -0.000001 4.030450 -2.016050 0.670338 6.456720 -0.000001 -0.000000 1.021730 -1.027480 -1.907410 12.994200 -0.242716 4.980390 -89.485800 -1.526000 -71.377600 5.348090 -0.000007 -0.000001 -33.496000 62.237300 -23.138500 24.328600 0.000019 0.000005 6.978860 2.727910 -68.743600 22.291600 -0.000001 0.000005 8.999890 5.678900 -23.097500 12.994500 -0.242716 -4.980390 88.086600 5.491570 -70.756900 -5.348130 -0.000001 -0.000004 -54.731900 26.405800 -22.981500 -24.328900 0.000322 -0.000009 -3.033680 -5.970220 -26.991600 -22.291500 -0.000108 -0.000004 7.413040 5.547830 -8.603200 -2.192480 -6.469440 -0.000000 -168.655000 -19.229400 -0.680702 39.081100 -0.000007 -0.000012 -0.198042 0.429304 24.764600 40.985400 -0.000006 -0.000013 -6.032150 -0.959784 -64.306200 11.754300 -0.000000 0.000003 -0.000137 -0.001345 -16.628800 -2.192510 6.469440 -0.000001 172.093000 21.342500 -178.700000 -39.081100 -0.002282 -0.040193 0.000209 0.007414 22.739500 -40.985400 0.000008 0.000006 -1.792780 3.717130 -64.339100 -11.754300 -0.000006 -0.000006 -0.002097 -0.029928 -17.790100
0.000000 0.000000 0.000000 0.000000 0.000000 -0.000000 -0.542598 91.753200 0.326162 88.265700 -1.828440 7.252690 15.735700 0.000005 -0.000001 84.467700 83.365300 -84.435400 8.984550 -0.406207 -0.000000 5.442960 -1.276970 0.125331 16.377300 -0.000001 -0.000001 3.961750 -2.000260 0.678087 6.456720 -0.000001 -0.000000 0.909622 -1.087620 -1.885170 12.994200 -0.242716 4.980390 -89.250000 -2.208100 -71.234200 5.348090 -0.000007 -0.000001 -29.253100 64.333200 -23.770200 24.328600 0.000019 0.000005 10.047600 2.877740 -74.171500 22.291600 -0.000001 0.000005 10.311600 5.673870 -24.204200 12.994500 -0.242716 -4.980390 88.160600 5.172030 -70.391900 -5.348130 -0.000001 -0.000004 -52.172200 22.374800 -24.890000 -24.328900 0.000322 -0.000009 -2.506900 -5.024230 -26.551300 -22.291500 -0.000108 -0.000004 7.333210 5.536760 -8.096400 -2.192480 -6.469440 -0.000000 -168.639000 -19.321900 -0.676826 39.081100 -0.000007 -0.000012 -0.199524 0.431680 24.806800 40.985400 -0.000006 -0.000013 -6.014600 -0.938130 -64.352300 11.754300 -0.000000 0.000003 -0.000145 -0.001414 -16.631400 -2.192510 6.469440 -0.000001 172.084000 21.349500 -178.719000 -39.081100 -0.002282 -0.040193 0.000602 0.006477 22.737300 -40.985400 0.000008 0.000006 -1.777520 3.826460 -64.327800 -11.754300 -0.000006 -0.000006 -0.002033 -0.029132 -17.757700
0.000000 0.000000 0.000000 0.000000 0.000000 -0.000000 -0.483094 91.762600 0.348326 88.287400 -1.830370 7.229700 15.735700 0.000005 -0.000001 84.462200 83.414100 -84.547900 8.984550 -0.406207 -0.000000 5.344450 -1.266480 -0.112210 16.377300 -0.000001 -0.000001 3.933770 -1.999240 0.741597 6.456720 -0.000001 -0.000000 0.747600 -1.092590 -1.805570 12.994200 -0.242716 4.980390 -89.002000 -2.930300 -71.182500 5.348090 -0.000007 -0.000001 -25.294900 66.475900 -24.607100 24.328600 0.000019 0.000005 13.156200 2.591850 -79.045400 22.291600 -0.000001 0.000005 11.209700 5.671360 -24.650200 12.994500 -0.242716 -4.980390 88.257200 4.803730 -70.031500 -5.348130 -0.000001 -0.000004 -49.795000 17.483900 -26.686800 -24.328900 0.000322 -0.000009 -2.434840 -4.980560 -26.084900 -22.291500 -0.000108 -0.000004 7.526960 5.529210 -7.760430 -2.192480 -6.469440 -0.000000 -168.721000 -19.277000 -0.667858 39.081100 -0.000007 -0.000012 -0.199582 0.432738 24.759800 40.985400 -0.000006 -0.000013 -6.001070 -1.046570 -64.362000 11.754300 -0.000000 0.000003 -0.000127 -0.001261 -16.625700 -2.192510 6.469440 -0.000001 172.033000 21.396700 -178.705000 -39.081100 -0.002282 -0.040193 0.006337 -0.007223 22.691200 -40.985400 0.000008 0.000006 -1.638950 3.856280 -64.318300 -11.754300 -0.000006 -0.000006 -0.002124 -0.030252 -17.803200
0.000000 0.000000 0.000000 0.000000 0.000000 -0.000000 -0.407368 91.767600 0.351001 88.284000 -1.729100 7.207060 15.735700 0.000005 -0.000001 84.279800 83.450400 -84.486300 8.984550 -0.406207 -0.000000 5.266630 -1.298240 -0.352803 16.377300 -0.000001 -0.000001 3.850390 -1.982880 0.746835 6.456720 -0.000001 -0.000000 0.473783 -1.075340 -1.679560 12.994200 -0.242716 4.980390 -88.743200 -3.699400 -71.221100 5.348090 -0.000007 -0.000001 -22.538000 68.551000 -24.984500 24.328600 0.000019 0.000005 16.443600 2.058320 -83.059000 22.291600 -0.000001 0.000005 12.415400 5.668240 -25.136900 12.994500 -0.242716 -4.980390 88.398600 4.314800 -69.614900 -5.348130 -0.000001 -0.000004 -47.898900 11.780000 -28.515700 -24.328900 0.000322 -0.000009 -2.321100 -4.864920 -25.534800 -22.291500 -0.000108 -0.000004 7.679000 5.523870 -7.528430 -2.192480 -6.469440 -0.000000 -168.792000 -19.264900 -0.731448 39.081100 -0.000007 -0.000012 -0.197446 0.427539 24.788800 40.985400 -0.000006 -0.000013 -5.923140 -0.966415 -64.380200 11.754300 -0.000000 0.000003 -0.000163 -0.001561 -16.636800 -2.192510 6.469440 -0.000001 171.972000 21.486300 -178.664000 -39.081100 -0.002282 -0.040193 0.007201 -0.009332 22.598300 -40.985400 0.000008 0.000006 -1.711770 3.872180 -64.253200 -11.754300 -0.000006 -0.000006 -0.001985 -0.028525 -17.733000
